<svg width="64" height="64" viewBox="0 0 64 64" fill="none" xmlns="http://www.w3.org/2000/svg">
<path d="M54.4 33.2799C56.9461 33.2799 59.3879 34.089 61.1882 35.5293C62.9886 36.9696 64 38.923 64 40.9599H32V46.0799H63.744C63.4048 47.8207 62.7136 49.5513 61.696 51.1999H32V56.3199H57.1456C51.6672 60.8409 43.0784 63.9999 32 63.9999C11.904 63.9999 0 53.6114 0 43.5199V40.9599C0 38.923 1.01143 36.9696 2.81178 35.5293C4.61212 34.089 7.05392 33.2799 9.6 33.2799H54.4Z" fill="white"/>
<path d="M49.3112 11.52C49.699 13.2126 49.699 14.9474 49.3112 16.64H31.9992V21.76H46.7512C44.6817 24.304 41.64 26.2448 38.0795 27.2933C34.519 28.3418 30.6303 28.4417 26.993 27.5782C23.3557 26.7148 20.1646 24.9341 17.8953 22.5017C15.6259 20.0692 14.3999 17.1152 14.3999 14.08C14.3999 11.0448 15.6259 8.09078 17.8953 5.65833C20.1646 3.22589 23.3557 1.44524 26.993 0.581766C30.6303 -0.281705 34.519 -0.181756 38.0795 0.866716C41.64 1.91519 44.6817 3.85604 46.7512 6.4H31.9992V11.52H49.3112Z" fill="white"/>
</svg>
